# xmcd
#
# Track frame offsets:
#	150
#	25174
#	45103
#	64614
#	80530
#	97678
#	116021
#	134368
#	148252
#	162850
#	183208
#
# Disc length: 2729 seconds
# Revision: 0
# Processed by: cddbd v1.5.2PL0 Copyright (c) Steve Scherf et al.
# Submitted via: dBpowerAMP V12.0
#
DISCID=840aa70b
DTITLE=Tasha Valentine - Live. Less Ordinary.
DYEAR=2007
DGENRE=Country
TTITLE0=Blue Walls
TTITLE1=I Can't Stand The Rain
TTITLE2=Death Came A Knockin'
TTITLE3=In My Time Of Dying
TTITLE4=Out Of Reach
TTITLE5=Angel From Montgomery
TTITLE6=In The Pines
TTITLE7=Money
TTITLE8=Ain't No Sunshine
TTITLE9=Stormy Monday
TTITLE10=Slow Rollin' Tears
EXTD=
EXTT0=
EXTT1=
EXTT2=
EXTT3=
EXTT4=
EXTT5=
EXTT6=
EXTT7=
EXTT8=
EXTT9=
EXTT10=
PLAYORDER=
